<svg xmlns="http://www.w3.org/2000/svg" width="1920" height="301.002" viewBox="0 0 1920 301.002">
  <g id="Group_1426" data-name="Group 1426" transform="translate(0 -2751)">
    <path id="Subtraction_3" data-name="Subtraction 3" d="M-1602.771,448.449a90.37,90.37,0,0,1-52.52-17.02L-1877,274h436.22l-87.67,133.386a91.229,91.229,0,0,1-14.758,17.692,87.879,87.879,0,0,1-17.946,12.862,87.382,87.382,0,0,1-20.174,7.851A87.83,87.83,0,0,1-1602.771,448.449Z" transform="translate(1877 2477)" fill="#fff" opacity="0.12"/>
    <path id="Subtraction_1" data-name="Subtraction 1" d="M-58,165.785l0,0H-96.764l-185.94-1.3H-410.117l169.361-112.74A90.7,90.7,0,0,1-190.368,36.4a91.054,91.054,0,0,1,22.46,2.82,91.652,91.652,0,0,1,21.165,8.306,92.21,92.21,0,0,1,18.806,13.561,94.753,94.753,0,0,1,15.382,18.583L-58,165.784Z" transform="translate(1978 2886.216)" fill="#fff" opacity="0.1"/>
    <path id="Subtraction_2" data-name="Subtraction 2" d="M-1857.25,107.486h-6.544a5.776,5.776,0,0,1-.608-.494,5.649,5.649,0,0,1-1.805-3.961,5.652,5.652,0,0,1,1.525-4.078,5.707,5.707,0,0,1,4.161-1.809,5.668,5.668,0,0,1,3.878,1.528,5.7,5.7,0,0,1,.282,8.04,5.726,5.726,0,0,1-.888.775Zm-46.658,0h-9.705a5.7,5.7,0,0,1,.692-6.849,5.709,5.709,0,0,1,4.162-1.809,5.669,5.669,0,0,1,3.879,1.529,5.7,5.7,0,0,1,.973,7.129Zm-47.549,0h-11.084a5.686,5.686,0,0,1,1.382-5.165,5.709,5.709,0,0,1,4.161-1.809,5.667,5.667,0,0,1,3.877,1.528,5.71,5.71,0,0,1,1.663,5.445Zm-30.505-18.874a5.667,5.667,0,0,1-3.878-1.528,5.649,5.649,0,0,1-1.8-3.961,5.651,5.651,0,0,1,1.525-4.078,5.707,5.707,0,0,1,4.161-1.809,5.668,5.668,0,0,1,3.878,1.528,5.7,5.7,0,0,1,.282,8.04A5.71,5.71,0,0,1-1981.962,88.612Zm48.24-1.685A5.669,5.669,0,0,1-1937.6,85.4a5.65,5.65,0,0,1-1.806-3.962,5.651,5.651,0,0,1,1.525-4.077,5.711,5.711,0,0,1,4.163-1.81,5.667,5.667,0,0,1,3.877,1.528,5.652,5.652,0,0,1,1.806,3.962,5.651,5.651,0,0,1-1.525,4.078A5.708,5.708,0,0,1-1933.722,86.928Zm48.237-1.684a5.67,5.67,0,0,1-3.879-1.528,5.7,5.7,0,0,1-.281-8.041,5.708,5.708,0,0,1,4.161-1.809,5.672,5.672,0,0,1,3.88,1.529,5.7,5.7,0,0,1,.28,8.04A5.707,5.707,0,0,1-1885.485,85.243Zm48.238-1.684a5.668,5.668,0,0,1-3.878-1.528,5.65,5.65,0,0,1-1.8-3.961,5.651,5.651,0,0,1,1.525-4.078,5.707,5.707,0,0,1,4.161-1.809,5.668,5.668,0,0,1,3.878,1.528,5.651,5.651,0,0,1,1.806,3.962,5.652,5.652,0,0,1-1.524,4.078A5.71,5.71,0,0,1-1837.247,83.559Zm-121.437-19.908a5.668,5.668,0,0,1-3.878-1.528,5.65,5.65,0,0,1-1.806-3.961,5.651,5.651,0,0,1,1.525-4.078,5.707,5.707,0,0,1,4.161-1.809A5.67,5.67,0,0,1-1954.8,53.8a5.7,5.7,0,0,1,.281,8.041A5.711,5.711,0,0,1-1958.684,63.651Zm48.237-1.684a5.668,5.668,0,0,1-3.878-1.528,5.651,5.651,0,0,1-1.805-3.962,5.651,5.651,0,0,1,1.525-4.078,5.709,5.709,0,0,1,4.161-1.809,5.667,5.667,0,0,1,3.878,1.528,5.651,5.651,0,0,1,1.806,3.962,5.649,5.649,0,0,1-1.525,4.078A5.71,5.71,0,0,1-1910.447,61.967Zm48.238-1.685a5.667,5.667,0,0,1-3.878-1.528,5.7,5.7,0,0,1-.281-8.041,5.708,5.708,0,0,1,4.161-1.808,5.669,5.669,0,0,1,3.879,1.528,5.651,5.651,0,0,1,1.805,3.961,5.65,5.65,0,0,1-1.524,4.077A5.709,5.709,0,0,1-1862.208,60.282Zm-73.2-21.592a5.669,5.669,0,0,1-3.879-1.529,5.651,5.651,0,0,1-1.8-3.961,5.651,5.651,0,0,1,1.525-4.078,5.709,5.709,0,0,1,4.161-1.809,5.667,5.667,0,0,1,3.878,1.528,5.7,5.7,0,0,1,.282,8.04A5.708,5.708,0,0,1-1935.408,38.69Zm48.239-1.684a5.668,5.668,0,0,1-3.878-1.528,5.7,5.7,0,0,1-.281-8.04,5.71,5.71,0,0,1,4.162-1.809,5.669,5.669,0,0,1,3.878,1.528,5.7,5.7,0,0,1,.281,8.04A5.71,5.71,0,0,1-1887.169,37.005Zm-24.962-23.278a5.668,5.668,0,0,1-3.878-1.528,5.649,5.649,0,0,1-1.805-3.961,5.653,5.653,0,0,1,1.525-4.078,5.711,5.711,0,0,1,4.162-1.808,5.669,5.669,0,0,1,3.878,1.528,5.652,5.652,0,0,1,1.806,3.962,5.649,5.649,0,0,1-1.525,4.078A5.708,5.708,0,0,1-1912.131,13.728Z" transform="translate(1999 2944.514)" fill="#fff" opacity="0.2"/>
    <path id="Subtraction_4" data-name="Subtraction 4" d="M-1592.269,380.957a5.668,5.668,0,0,1-3.878-1.528,5.649,5.649,0,0,1-1.805-3.961,5.652,5.652,0,0,1,1.525-4.078,5.708,5.708,0,0,1,4.161-1.809,5.671,5.671,0,0,1,3.879,1.528,5.7,5.7,0,0,1,.282,8.04A5.711,5.711,0,0,1-1592.269,380.957Zm-24.961-23.277a5.67,5.67,0,0,1-3.879-1.528,5.7,5.7,0,0,1-.281-8.041,5.708,5.708,0,0,1,4.161-1.808,5.671,5.671,0,0,1,3.88,1.528,5.7,5.7,0,0,1,.28,8.04A5.708,5.708,0,0,1-1617.23,357.68Zm48.238-1.684a5.668,5.668,0,0,1-3.879-1.528,5.7,5.7,0,0,1-.281-8.04,5.709,5.709,0,0,1,4.162-1.809,5.668,5.668,0,0,1,3.878,1.528,5.7,5.7,0,0,1,.281,8.041A5.709,5.709,0,0,1-1568.992,356Zm-73.2-21.592a5.668,5.668,0,0,1-3.878-1.528,5.651,5.651,0,0,1-1.805-3.962,5.651,5.651,0,0,1,1.525-4.078,5.707,5.707,0,0,1,4.161-1.809,5.668,5.668,0,0,1,3.878,1.528,5.7,5.7,0,0,1,.282,8.04A5.71,5.71,0,0,1-1642.192,334.4Zm48.239-1.685a5.668,5.668,0,0,1-3.878-1.528,5.7,5.7,0,0,1-.282-8.04,5.71,5.71,0,0,1,4.162-1.809,5.669,5.669,0,0,1,3.879,1.528,5.65,5.65,0,0,1,1.8,3.961,5.651,5.651,0,0,1-1.525,4.078A5.707,5.707,0,0,1-1593.953,332.718Zm48.238-1.684a5.669,5.669,0,0,1-3.879-1.529,5.648,5.648,0,0,1-1.805-3.961,5.652,5.652,0,0,1,1.525-4.078,5.707,5.707,0,0,1,4.161-1.809,5.668,5.668,0,0,1,3.878,1.528,5.7,5.7,0,0,1,.282,8.04A5.708,5.708,0,0,1-1545.715,331.034Zm-121.438-19.908a5.669,5.669,0,0,1-3.878-1.528,5.7,5.7,0,0,1-.28-8.04,5.709,5.709,0,0,1,4.161-1.808,5.667,5.667,0,0,1,3.878,1.528,5.7,5.7,0,0,1,.282,8.04A5.71,5.71,0,0,1-1667.153,311.126Zm48.239-1.684a5.67,5.67,0,0,1-3.879-1.528,5.65,5.65,0,0,1-1.806-3.962,5.653,5.653,0,0,1,1.525-4.078,5.709,5.709,0,0,1,4.162-1.809,5.668,5.668,0,0,1,3.878,1.528,5.65,5.65,0,0,1,1.806,3.961,5.651,5.651,0,0,1-1.525,4.078A5.707,5.707,0,0,1-1618.914,309.441Zm48.237-1.684a5.669,5.669,0,0,1-3.878-1.528,5.7,5.7,0,0,1-.281-8.041,5.709,5.709,0,0,1,4.161-1.809,5.67,5.67,0,0,1,3.879,1.529,5.7,5.7,0,0,1,.281,8.039A5.712,5.712,0,0,1-1570.677,307.757Zm48.239-1.685a5.668,5.668,0,0,1-3.878-1.528,5.7,5.7,0,0,1-.28-8.04,5.709,5.709,0,0,1,4.161-1.808,5.667,5.667,0,0,1,3.878,1.528,5.652,5.652,0,0,1,1.806,3.962,5.65,5.65,0,0,1-1.524,4.078A5.71,5.71,0,0,1-1522.439,306.072Zm-121.437-19.908a5.668,5.668,0,0,1-3.878-1.528,5.65,5.65,0,0,1-1.806-3.961,5.648,5.648,0,0,1,1.525-4.077,5.708,5.708,0,0,1,4.162-1.809,5.669,5.669,0,0,1,3.878,1.528,5.7,5.7,0,0,1,.281,8.041A5.71,5.71,0,0,1-1643.876,286.164Zm48.238-1.684a5.67,5.67,0,0,1-3.879-1.528,5.65,5.65,0,0,1-1.8-3.962,5.65,5.65,0,0,1,1.522-4.078A5.719,5.719,0,0,1-1598.7,274h6.134a5.744,5.744,0,0,1,.813.632,5.7,5.7,0,0,1,.281,8.04A5.71,5.71,0,0,1-1595.638,284.48Zm48.238-1.685a5.666,5.666,0,0,1-3.877-1.528,5.675,5.675,0,0,1-.886-7.268h9.532a5.675,5.675,0,0,1-.606,6.987A5.711,5.711,0,0,1-1547.4,282.8Z" transform="translate(3389 2477)" fill="#fff" opacity="0.2"/>
  </g>
</svg>
